<svg width="74" height="37" viewBox="0 0 74 37" fill="none" xmlns="http://www.w3.org/2000/svg">
<path d="M19.5484 25.0012C19.7519 26.8265 19.2556 28.3695 18.0595 29.6302C16.8621 30.8795 15.0874 31.7456 12.7353 32.2286L13.1288 35.7587L10.7697 36.0217L10.3839 32.5604C7.57633 32.8152 5.06458 32.5954 2.8486 31.901L2.34189 27.3549C3.39567 27.7372 4.64396 28.0397 6.08676 28.2625C7.54103 28.4839 8.82305 28.5677 9.93281 28.5137L9.33781 23.1755L8.13416 22.8564C5.7613 22.2143 4.04022 21.424 2.97094 20.4855C1.91185 19.5343 1.29594 18.2837 1.12319 16.7339C0.937652 15.0693 1.43401 13.6309 2.61225 12.4187C3.8007 11.1937 5.54735 10.3365 7.85221 9.84713L7.55855 7.21245L9.9177 6.9495L10.2037 9.51529C12.8454 9.33707 15.2807 9.60028 17.5094 10.3049L16.3398 14.5148C14.467 13.9797 12.5803 13.7367 10.6797 13.7859L11.2459 18.8658C13.5805 19.4773 15.2536 20.0463 16.2654 20.5728C17.2886 21.0979 18.0606 21.7151 18.5813 22.4241C19.1134 23.1319 19.4358 23.9909 19.5484 25.0012ZM14.394 25.8372C14.3402 25.355 14.0996 24.9693 13.6722 24.6798C13.2448 24.3904 12.6209 24.1113 11.8006 23.8424L12.2785 28.1302C13.8104 27.6922 14.5155 26.9278 14.394 25.8372ZM6.30644 16.1562C6.36274 16.6613 6.58165 17.0612 6.96316 17.3557C7.35487 17.6375 7.96024 17.907 8.77927 18.1644L8.32822 14.1177C6.8716 14.5009 6.19768 15.1804 6.30644 16.1562ZM29.315 31.8799L27.3653 14.3876L21.446 19.5819L20.6834 12.7402L27.7388 6.52662L35.4975 5.66183L38.308 30.8776L29.315 31.8799ZM57.8481 29.1638C47.8324 30.2801 42.1449 26.0225 41.3234 18.6517L41.1347 16.9589C40.2738 9.23551 45.6015 4.17857 55.053 3.1251C64.5045 2.07162 70.8227 5.90191 71.656 13.3785L71.8408 15.036C72.6899 22.6536 67.8639 28.0474 57.8481 29.1638ZM57.4268 23.1409C61.7998 22.6535 63.3547 20.2664 62.9066 16.246L62.714 14.518C62.258 10.427 59.9688 8.46848 55.7368 8.94018C51.4695 9.41582 49.6991 11.7912 50.159 15.9174L50.3477 17.6102C50.8076 21.7364 53.089 23.6244 57.4268 23.1409Z" fill="#FFD52E"/>
</svg>
