<svg width="89" height="38" viewBox="0 0 89 38" fill="none" xmlns="http://www.w3.org/2000/svg">
<path d="M21.3915 26.0752C21.5949 27.9005 21.0986 29.4435 19.9025 30.7042C18.7051 31.9535 16.9304 32.8196 14.5784 33.3026L14.9718 36.8327L12.6127 37.0957L12.2269 33.6344C9.41936 33.8892 6.90761 33.6694 4.69163 32.975L4.18491 28.4289C5.2387 28.8112 6.48699 29.1137 7.92978 29.3365C9.38406 29.5579 10.6661 29.6417 11.7758 29.5877L11.1808 24.2495L9.97718 23.9303C7.60433 23.2883 5.88325 22.498 4.81396 21.5595C3.75488 20.6083 3.13896 19.3577 2.96622 17.8079C2.78068 16.1433 3.27703 14.7049 4.45528 13.4927C5.64372 12.2677 7.39038 11.4105 9.69524 10.9211L9.40158 8.28644L11.7607 8.02349L12.0467 10.5893C14.6884 10.4111 17.1237 10.6743 19.3524 11.3789L18.1829 15.5888C16.3101 15.0537 14.4234 14.8107 12.5227 14.8599L13.0889 19.9398C15.4235 20.5513 17.0967 21.1203 18.1084 21.6467C19.1316 22.1719 19.9036 22.7891 20.4243 23.4981C20.9565 24.2059 21.2789 25.0649 21.3915 26.0752ZM16.237 26.9112C16.1833 26.429 15.9427 26.0432 15.5152 25.7538C15.0878 25.4644 14.4639 25.1853 13.6436 24.9164L14.1216 29.2042C15.6534 28.7661 16.3586 28.0018 16.237 26.9112ZM8.14947 17.2302C8.20577 17.7353 8.42467 18.1351 8.80618 18.4297C9.19789 18.7115 9.80327 18.981 10.6223 19.2384L10.1712 15.1917C8.71463 15.5749 8.0407 16.2544 8.14947 17.2302ZM38.2625 32.6262C28.9873 33.66 24.4759 30.6638 23.5571 25.3034L31.5979 24.4071C32.0296 26.3585 33.5897 27.5414 37.2221 27.1365C40.3609 26.7867 41.7673 25.6302 41.5707 23.8668C41.386 22.2093 39.783 21.6024 36.7501 21.9405L33.9288 22.255L33.3627 17.1766L36.043 16.8778C39.0407 16.5437 40.4275 15.5322 40.2506 13.9452C40.0934 12.5345 38.6511 11.7669 35.8297 12.0814C33.0789 12.388 31.5824 13.6974 31.3715 15.649L23.4717 16.5295C23.3289 11.4039 27.3912 7.48773 35.6436 6.5679C43.226 5.72277 48.129 7.74703 48.6125 12.0848C48.9269 14.9062 47.2309 16.9876 44.0415 18.1643C47.9171 18.3393 50.363 20.1018 50.6932 23.0643C51.2356 27.9311 46.8676 31.6671 38.2625 32.6262ZM68.9556 29.2051C58.9398 30.3215 53.2524 26.0639 52.4308 18.6931L52.2421 17.0003C51.3813 9.27688 56.7089 4.21994 66.1604 3.16647C75.6119 2.11299 81.9301 5.94327 82.7635 13.4198L82.9482 15.0774C83.7973 22.695 78.9713 28.0888 68.9556 29.2051ZM68.5342 23.1823C72.9073 22.6948 74.4622 20.3078 74.0141 16.2874L73.8214 14.5593C73.3655 10.4684 71.0763 8.50984 66.8443 8.98155C62.577 9.45719 60.8066 11.8325 61.2665 15.9587L61.4552 17.6515C61.9151 21.7777 64.1964 23.6658 68.5342 23.1823Z" fill="#FFD52E"/>
<path d="M22.5 21L87.2132 13.1223" stroke="#FF3C2E" stroke-width="3"/>
</svg>
