<svg width="87" height="30" viewBox="0 0 87 30" fill="none" xmlns="http://www.w3.org/2000/svg">
<path d="M19.1515 19.0889C19.1508 20.9256 18.4861 22.4039 17.1572 23.5238C15.8284 24.6322 13.9685 25.2957 11.5773 25.5143L11.5759 29.0663L9.20218 29.0654L9.2035 25.5827C6.38504 25.5239 3.91328 25.0262 1.78822 24.0898L1.78995 19.5155C2.79472 20.0126 4.00165 20.452 5.41074 20.8337C6.83139 21.2155 8.09615 21.4412 9.20504 21.5109L9.20707 16.1396L8.04635 15.6887C5.75957 14.7868 4.137 13.8101 3.17865 12.7586C2.23186 11.6956 1.75876 10.3843 1.75935 8.82492C1.75999 7.15001 2.41315 5.77567 3.71884 4.7019C5.03608 3.61659 6.86719 2.95887 9.21216 2.72874L9.21316 0.0777478L11.5869 0.0786475L11.5859 2.66033C14.2311 2.77684 16.622 3.3091 18.7586 4.25711L17.1284 8.31095C15.3267 7.57099 13.4786 7.11979 11.5843 6.95736L11.5824 12.0687C13.8345 12.9359 15.4341 13.6874 16.381 14.323C17.3395 14.9587 18.0381 15.6578 18.4768 16.4204C18.927 17.1829 19.1519 18.0724 19.1515 19.0889ZM13.9361 19.3469C13.9362 18.8617 13.74 18.4516 13.3474 18.1164C12.9548 17.7813 12.3658 17.4346 11.5805 17.0762L11.5788 21.3905C13.1499 21.1254 13.9356 20.4442 13.9361 19.3469ZM6.9747 8.8269C6.97451 9.33515 7.14761 9.75683 7.49402 10.0919C7.85198 10.4155 8.42364 10.7507 9.20899 11.0975L9.21053 7.02577C7.72035 7.24467 6.97507 7.84505 6.9747 8.8269ZM35.1898 27.4746C25.8572 27.4711 21.7068 23.992 21.3895 18.5626L29.4801 18.5657C29.6923 20.553 31.1111 21.9019 34.7661 21.9033C37.9243 21.9045 39.4505 20.9115 39.4512 19.1372C39.4518 17.4694 37.9263 16.6882 34.8745 16.687L32.0357 16.686L32.0377 11.5761L34.7345 11.5771C37.7508 11.5783 39.2415 10.7272 39.2421 9.13036C39.2426 7.71095 37.8945 6.78782 35.0557 6.78675C32.2879 6.7857 30.6551 7.9206 30.2286 9.83664L22.2799 9.83363C22.7077 4.72393 27.1801 1.28357 35.4836 1.28671C43.1129 1.2896 47.7605 3.8463 47.7589 8.21097C47.7578 11.0498 45.8409 12.9298 42.5405 13.7447C46.3726 14.3494 48.6074 16.3729 48.6063 19.3536C48.6044 24.2506 43.8482 27.4779 35.1898 27.4746ZM66.073 27.4863C55.9952 27.4825 50.8162 22.6191 50.819 15.2027L50.8197 13.4994C50.8226 5.72817 56.6794 1.29475 66.1894 1.29835C75.6994 1.30196 81.5527 5.81079 81.5499 13.3336L81.5492 15.0014C81.5463 22.6662 76.1508 27.4902 66.073 27.4863ZM66.3237 21.454C70.7238 21.4556 72.5344 19.2562 72.5359 15.2109L72.5366 13.4722C72.5382 9.35589 70.4809 7.15503 66.2226 7.15341C61.9289 7.15179 59.9055 9.31561 59.9039 13.4674L59.9032 15.1707C59.9017 19.3224 61.959 21.4523 66.3237 21.454Z" fill="#FFD52E"/>
<path d="M20.8173 14.1684L86.0051 13.5326" stroke="#FF3C2E" stroke-width="3"/>
</svg>
