<svg width="32" height="32" viewBox="0 0 32 32" fill="none" xmlns="http://www.w3.org/2000/svg">
<path d="M15.7339 0.00510293C11.4018 0.00510293 7.48311 1.75796 4.64866 4.59264C1.81421 7.42732 0.0614987 11.3464 0.0614987 15.6762C0.0614987 20.0086 1.81421 23.9251 4.64866 26.7598C7.48311 29.5945 11.4018 31.3473 15.7313 31.3473C20.0608 31.3473 23.9795 29.5945 26.814 26.7598C29.651 23.9276 31.4037 20.0086 31.4037 15.6762C31.4037 11.3438 29.651 7.42732 26.8165 4.59264C23.9821 1.75796 20.0634 0.00510293 15.7339 0.00510293ZM13.1163 10.8386C12.629 10.3385 12.6418 9.53738 13.1418 9.05005C13.6419 8.56272 14.4429 8.57293 14.9302 9.07556L20.5022 14.8215L19.5965 15.7043L20.5073 14.8215C20.9946 15.3241 20.9818 16.1278 20.4792 16.6151C20.4639 16.6305 20.4486 16.6432 20.4359 16.656L14.9328 22.2845C14.4455 22.7846 13.6444 22.7973 13.1444 22.31C12.6443 21.8227 12.6316 21.0215 13.1188 20.5214L17.8336 15.7017L13.1214 10.8412L13.1163 10.8386Z" fill="#FFD52E"/>
</svg>
