<svg width="32" height="32" viewBox="0 0 32 32" fill="none" xmlns="http://www.w3.org/2000/svg">
<path d="M15.7002 0.00510293C20.0322 0.00510293 23.951 1.75796 26.7854 4.59264C29.6199 7.42732 31.3726 11.3464 31.3726 15.6762C31.3726 20.0086 29.6199 23.9251 26.7854 26.7598C23.951 29.5945 20.0322 31.3473 15.7028 31.3473C11.3733 31.3473 7.45453 29.5945 4.62008 26.7598C1.78309 23.9276 0.0303711 20.0086 0.0303711 15.6762C0.0303711 11.3438 1.78309 7.42732 4.61753 4.59264C7.45198 1.75796 11.3707 0.00510293 15.7002 0.00510293ZM18.3178 10.8386C18.8051 10.3385 18.7923 9.53738 18.2923 9.05005C17.7922 8.56272 16.9911 8.57293 16.5038 9.07556L10.9319 14.8215L11.8376 15.7043L10.9268 14.8215C10.4395 15.3241 10.4523 16.1278 10.9549 16.6151C10.9702 16.6305 10.9855 16.6432 10.9982 16.656L16.5013 22.2845C16.9886 22.7846 17.7897 22.7973 18.2897 22.31C18.7898 21.8227 18.8025 21.0215 18.3152 20.5214L13.6005 15.7017L18.3127 10.8412L18.3178 10.8386Z" fill="#FFD52E"/>
</svg>
