<svg width="1464" height="88" viewBox="0 0 1464 88" fill="none" xmlns="http://www.w3.org/2000/svg">
<path d="M92.8283 12.6937L72.7193 32.9792L52.0517 0.16673V0L52.0014 0.0833649L51.9483 0V0.16673L31.2807 32.9792L11.1717 12.6937L0 72.9943L15.6404 88H88.3596L104 72.9943L92.8283 12.6937Z" fill="white"/>
<path d="M228.828 12.6937L208.719 32.9792L188.052 0.16673V0L188.001 0.0833649L187.948 0V0.16673L167.281 32.9792L147.172 12.6937L136 72.9943L151.64 88H224.36L240 72.9943L228.828 12.6937Z" fill="white"/>
<path d="M364.828 12.6937L344.719 32.9792L324.052 0.16673V0L324.001 0.0833649L323.948 0V0.16673L303.281 32.9792L283.172 12.6937L272 72.9943L287.64 88H360.36L376 72.9943L364.828 12.6937Z" fill="white"/>
<path d="M500.828 12.6937L480.719 32.9792L460.052 0.16673V0L460.001 0.0833649L459.948 0V0.16673L439.281 32.9792L419.172 12.6937L408 72.9943L423.64 88H496.36L512 72.9943L500.828 12.6937Z" fill="white"/>
<path d="M636.828 12.6937L616.719 32.9792L596.052 0.16673V0L596.001 0.0833649L595.948 0V0.16673L575.281 32.9792L555.172 12.6937L544 72.9943L559.64 88H632.36L648 72.9943L636.828 12.6937Z" fill="white"/>
<path d="M772.828 12.6937L752.719 32.9792L732.052 0.16673V0L732.001 0.0833649L731.948 0V0.16673L711.281 32.9792L691.172 12.6937L680 72.9943L695.64 88H768.36L784 72.9943L772.828 12.6937Z" fill="white"/>
<path d="M908.828 12.6937L888.719 32.9792L868.052 0.16673V0L868.001 0.0833649L867.948 0V0.16673L847.281 32.9792L827.172 12.6937L816 72.9943L831.64 88H904.36L920 72.9943L908.828 12.6937Z" fill="white"/>
<path d="M1044.83 12.6937L1024.72 32.9792L1004.05 0.16673V0L1004 0.0833649L1003.95 0V0.16673L983.281 32.9792L963.172 12.6937L952 72.9943L967.64 88H1040.36L1056 72.9943L1044.83 12.6937Z" fill="white"/>
<path d="M1180.83 12.6937L1160.72 32.9792L1140.05 0.16673V0L1140 0.0833649L1139.95 0V0.16673L1119.28 32.9792L1099.17 12.6937L1088 72.9943L1103.64 88H1176.36L1192 72.9943L1180.83 12.6937Z" fill="white"/>
<path d="M1316.83 12.6937L1296.72 32.9792L1276.05 0.16673V0L1276 0.0833649L1275.95 0V0.16673L1255.28 32.9792L1235.17 12.6937L1224 72.9943L1239.64 88H1312.36L1328 72.9943L1316.83 12.6937Z" fill="white"/>
<path d="M1452.83 12.6937L1432.72 32.9792L1412.05 0.16673V0L1412 0.0833649L1411.95 0V0.16673L1391.28 32.9792L1371.17 12.6937L1360 72.9943L1375.64 88H1448.36L1464 72.9943L1452.83 12.6937Z" fill="white"/>
</svg>
