<svg width="19" height="19" viewBox="0 0 19 19" fill="none" xmlns="http://www.w3.org/2000/svg">
<path fill-rule="evenodd" clip-rule="evenodd" d="M5.98234 0.113487C5.28631 0.0778973 4.59056 0.188423 3.93992 0.438204C3.28927 0.687984 2.69819 1.07123 2.20478 1.56344C1.71138 2.05566 1.32659 2.64611 1.07524 3.29615C0.82388 3.94618 0.711534 4.64155 0.745438 5.33766C0.703818 6.24698 0.462251 13.1191 1.16437 14.9232C1.39442 15.5209 1.74775 16.0633 2.20139 16.5154C2.65503 16.9675 3.19879 17.319 3.79727 17.547C4.49681 17.8086 5.23565 17.9495 5.98234 17.964C13.9997 18.326 16.971 18.1294 18.225 14.9201C18.4875 14.2224 18.6288 13.4852 18.643 12.7399C19.005 4.70264 18.5833 2.95997 17.1863 1.56389C16.078 0.458236 14.7742 -0.293604 5.98325 0.110837L5.98234 0.113487ZM6.05745 16.3471C5.48655 16.3407 4.92099 16.2365 4.38541 16.0387C3.99633 15.8916 3.64285 15.6635 3.34825 15.3699C3.05365 15.0762 2.82462 14.7233 2.67626 14.3347C2.14153 12.9649 2.31433 6.46333 2.36681 5.40835C2.33293 4.41476 2.68545 3.44682 3.35032 2.70768C4.25511 1.80923 5.41414 1.36907 13.3337 1.72647C14.3288 1.69246 15.2985 2.04423 16.0409 2.70768C16.9457 3.60614 17.3881 4.77767 17.0244 12.6674C17.0179 13.2369 16.9132 13.8008 16.7149 14.3347C15.9006 16.423 14.0259 16.7126 6.05836 16.3471H6.05745ZM13.4215 4.24291C13.4208 4.45694 13.4836 4.66632 13.602 4.84463C13.7204 5.02293 13.8891 5.16208 14.0867 5.24445C14.2842 5.32681 14.5018 5.34856 14.7118 5.30718C14.9218 5.2658 15.1148 5.16322 15.2663 5.01206C15.4178 4.86091 15.5211 4.66795 15.563 4.45806C15.6049 4.24816 15.5836 4.03069 15.5017 3.83292C15.4199 3.63516 15.2811 3.46625 15.1031 3.3474C14.9251 3.22854 14.7159 3.1652 14.5018 3.16538C14.2157 3.16514 13.9412 3.27831 13.7386 3.48038C13.536 3.68244 13.422 3.95679 13.4215 4.24291ZM5.07303 9.0381C5.07124 9.95292 5.34087 10.8478 5.84782 11.6093C6.35476 12.3708 7.07623 12.9651 7.92089 13.3164C8.76556 13.6677 9.69547 13.7606 10.5929 13.5832C11.4904 13.4059 12.3151 12.966 12.9626 12.3197C13.6101 11.6735 14.0513 10.8497 14.2305 9.95261C14.4096 9.0555 14.3185 8.12557 13.9689 7.28022C13.6192 6.43486 13.0266 5.71224 12.2661 5.2038C11.5056 4.69537 10.6113 4.42404 9.69651 4.42404C9.08977 4.42285 8.48874 4.54125 7.92785 4.77261C7.36696 5.00398 6.8572 5.34378 6.42775 5.77239C5.9983 6.20099 5.65762 6.71006 5.42516 7.2705C5.1927 7.83094 5.07303 8.43137 5.07303 9.0381ZM6.69531 9.0381C6.69424 8.44448 6.8693 7.86401 7.19832 7.3699C7.52734 6.8758 7.99555 6.49025 8.54368 6.26233C9.09181 6.03442 9.69524 5.97444 10.2776 6.08959C10.86 6.20474 11.3951 6.49018 11.8152 6.90956C12.2353 7.32893 12.5216 7.86352 12.6378 8.44566C12.754 9.02781 12.6949 9.63115 12.468 10.1797C12.2411 10.7282 11.8565 11.1972 11.363 11.5272C10.8695 11.8571 10.2892 12.033 9.69559 12.033C9.30195 12.0334 8.91208 11.9562 8.54826 11.8059C8.18445 11.6556 7.85379 11.435 7.57519 11.1569C7.29659 10.8788 7.07552 10.5485 6.92454 10.185C6.77357 9.82145 6.69567 9.43175 6.69531 9.0381Z" fill="white"/>
</svg>
