<svg width="1009" height="35" viewBox="0 0 1009 35" fill="none" xmlns="http://www.w3.org/2000/svg">
<path d="M0.290466 28L11.6305 2.26H22.3945L33.6265 28H24.8425L22.8625 23.176H10.0825L8.03047 28H0.290466ZM16.5265 7.876L12.2425 18.064H20.7385L16.5265 7.876Z" fill="white"/>
<path d="M35.915 28V1.252H43.511V28H35.915Z" fill="white"/>
<path d="M47.7978 28V1.252H55.3938V28H47.7978Z" fill="white"/>
<path d="M68.7636 28V2.26H82.1916C90.7956 2.26 94.9356 5.176 94.9356 10.936V11.08C94.9356 16.768 90.4356 20.224 82.5516 20.224H77.0436V28H68.7636ZM77.0436 14.968H81.9036C85.0356 14.968 86.7636 13.744 86.7636 11.296V11.152C86.7636 8.668 84.9636 7.66 81.9396 7.66H77.0436V14.968Z" fill="white"/>
<path d="M97.7197 28V1.252H105.316V28H97.7197Z" fill="white"/>
<path d="M116.874 28.432C112.23 28.432 108.198 26.632 108.198 22.492C108.198 18.208 111.906 16.444 119.538 16.444H124.542V16.084C124.542 14.212 123.57 13.276 120.51 13.276C117.846 13.276 116.622 14.176 116.334 15.364H109.17C109.602 10.828 114.354 8.668 120.942 8.668C127.71 8.668 132.102 10.792 132.102 15.904V28H124.687V25.732C123.426 27.352 121.23 28.432 116.874 28.432ZM119.43 24.004C122.202 24.004 124.542 23.104 124.542 21.34V20.476H119.646C116.874 20.476 115.758 20.98 115.758 22.204C115.758 23.392 117.018 24.004 119.43 24.004Z" fill="white"/>
<path d="M138.547 34.192L142.723 26.056L132.751 9.172H141.031L146.719 19.18L152.083 9.172H159.391L145.855 34.192H138.547Z" fill="white"/>
<path d="M184.137 21.772C183.345 26.02 179.133 28.432 171.897 28.432C164.085 28.432 158.649 24.976 158.649 18.82V18.532C158.649 12.484 164.301 8.668 171.753 8.668C178.665 8.668 184.173 11.62 184.173 18.388V20.224H166.317C166.857 22.924 169.125 23.932 172.149 23.932C175.065 23.932 176.577 22.996 176.973 21.772H184.137ZM171.753 13.096C169.413 13.096 167.253 13.78 166.461 16.3H176.793C176.613 14.248 174.993 13.096 171.753 13.096Z" fill="white"/>
<path d="M186.909 28V9.172H194.505V13.132C196.053 10.072 198.861 8.884 202.821 8.956V15.184C197.781 14.932 194.505 16.336 194.505 19.324V28H186.909Z" fill="white"/>
<path d="M215.828 28.432C208.736 28.468 204.596 26.092 204.344 21.952H211.508C211.796 23.356 212.912 24.148 215.792 24.148C218.456 24.148 219.536 23.572 219.536 22.564C219.536 21.376 218.168 21.232 214.244 20.872C207.62 20.26 204.776 18.856 204.776 15.04C204.776 10.576 209.564 8.668 215.396 8.668C221.444 8.668 225.692 10.216 226.34 14.716H219.32C218.924 13.456 217.772 12.916 215.396 12.916C213.236 12.916 211.976 13.276 211.976 14.212C211.976 15.22 213.308 15.4 216.656 15.724C223.712 16.3 227.06 17.524 227.06 21.808C227.06 26.272 222.74 28.396 215.828 28.432Z" fill="white"/>
<path d="M254.87 28.432C243.458 28.432 237.23 22.996 237.23 15.292V15.004C237.23 7.192 244.718 1.864 254.834 1.864C262.862 1.864 269.882 4.564 270.674 11.152H262.43C261.818 8.74 259.154 7.48 254.906 7.48C249.326 7.48 245.87 10.396 245.87 15.112V15.4C245.87 19.756 248.534 22.996 255.23 22.996C260.486 22.996 262.862 21.34 263.33 19.108H255.986V13.6H271.466V16.948C271.466 23.896 265.922 28.432 254.87 28.432Z" fill="white"/>
<path d="M298.746 21.772C297.954 26.02 293.742 28.432 286.506 28.432C278.694 28.432 273.258 24.976 273.258 18.82V18.532C273.258 12.484 278.91 8.668 286.362 8.668C293.274 8.668 298.782 11.62 298.782 18.388V20.224H280.926C281.466 22.924 283.734 23.932 286.758 23.932C289.674 23.932 291.186 22.996 291.582 21.772H298.746ZM286.362 13.096C284.022 13.096 281.862 13.78 281.07 16.3H291.402C291.222 14.248 289.602 13.096 286.362 13.096Z" fill="white"/>
<path d="M311.418 28.432C306.018 28.432 302.994 26.344 302.994 21.556V13.816H299.862V9.172H302.994V4.888H310.626V9.172H315.846V13.816H310.626V20.98C310.626 22.6 311.634 23.14 313.398 23.14C314.37 23.14 315.09 23.032 315.882 22.816V27.892C314.838 28.108 313.362 28.432 311.418 28.432Z" fill="white"/>
<path d="M334.843 28.432C330.199 28.432 326.167 26.632 326.167 22.492C326.167 18.208 329.875 16.444 337.507 16.444H342.511V16.084C342.511 14.212 341.539 13.276 338.479 13.276C335.815 13.276 334.591 14.176 334.303 15.364H327.139C327.571 10.828 332.323 8.668 338.911 8.668C345.679 8.668 350.071 10.792 350.071 15.904V28H342.655V25.732C341.395 27.352 339.199 28.432 334.843 28.432ZM337.399 24.004C340.171 24.004 342.511 23.104 342.511 21.34V20.476H337.615C334.843 20.476 333.727 20.98 333.727 22.204C333.727 23.392 334.987 24.004 337.399 24.004Z" fill="white"/>
<path d="M369.501 26.56C367.941 26.512 366.549 26.368 365.325 26.128C364.101 25.864 362.985 25.504 361.977 25.048V20.404C362.961 20.884 364.149 21.328 365.541 21.736C366.933 22.12 368.253 22.348 369.501 22.42V16.984C368.109 16.432 366.921 15.904 365.937 15.4C364.977 14.896 364.197 14.368 363.597 13.816C363.021 13.24 362.601 12.616 362.337 11.944C362.073 11.248 361.941 10.456 361.941 9.568C361.941 8.368 362.253 7.336 362.877 6.472C363.525 5.584 364.413 4.876 365.541 4.348C366.693 3.82 368.013 3.496 369.501 3.376V0.675999H371.913V3.304C373.257 3.352 374.517 3.508 375.693 3.772C376.893 4.036 378.057 4.42 379.185 4.924L377.529 9.028C376.569 8.62 375.597 8.308 374.613 8.092C373.653 7.876 372.753 7.732 371.913 7.66V12.844C373.209 13.324 374.445 13.852 375.621 14.428C376.797 14.98 377.745 15.688 378.465 16.552C379.209 17.416 379.581 18.556 379.581 19.972C379.581 21.724 378.945 23.188 377.673 24.364C376.401 25.54 374.481 26.248 371.913 26.488V30.088H369.501V26.56ZM371.913 22.312C372.729 22.168 373.329 21.928 373.713 21.592C374.097 21.232 374.289 20.776 374.289 20.224C374.289 19.888 374.193 19.6 374.001 19.36C373.833 19.096 373.569 18.856 373.209 18.64C372.873 18.4 372.441 18.16 371.913 17.92V22.312ZM369.501 7.732C369.021 7.804 368.613 7.924 368.277 8.092C367.941 8.236 367.677 8.44 367.485 8.704C367.317 8.944 367.233 9.232 367.233 9.568C367.233 9.904 367.305 10.204 367.449 10.468C367.617 10.708 367.869 10.948 368.205 11.188C368.541 11.404 368.973 11.632 369.501 11.872V7.732Z" fill="#FFC802"/>
<path d="M395.574 28.432C386.394 28.432 382.182 24.94 381.894 19.576H389.31C389.562 21.736 391.146 23.284 395.214 23.284C398.778 23.284 400.47 22.096 400.47 20.08C400.47 18.244 398.778 17.38 395.502 17.38H392.514V12.376H395.322C398.526 12.376 400.146 11.44 400.146 9.676C400.146 8.092 398.634 7.012 395.466 7.012C392.37 7.012 390.534 8.272 390.102 10.396H382.794C383.226 5.356 387.726 1.9 395.826 1.9C403.422 1.9 407.958 4.6 407.958 8.884C407.958 11.764 406.05 13.672 402.81 14.5C406.59 15.148 408.858 17.2 408.858 20.26C408.858 25.228 404.07 28.432 395.574 28.432Z" fill="#FFC802"/>
<path d="M426.415 28.432C416.443 28.432 411.223 23.5 411.223 16.048V14.248C411.223 6.472 417.019 1.9 426.487 1.9C435.991 1.9 441.751 6.58 441.751 14.104V15.832C441.751 23.5 436.423 28.432 426.415 28.432ZM426.631 22.852C431.455 22.852 433.507 20.404 433.507 16.084V14.212C433.507 9.82 431.167 7.336 426.523 7.336C421.843 7.336 419.539 9.748 419.539 14.212V16.012C419.539 20.476 421.879 22.852 426.631 22.852Z" fill="#FFC802"/>
<path d="M470.235 28.432C458.751 28.432 452.703 23.176 452.703 15.292V15.004C452.703 7.12 460.191 1.9 469.983 1.9C478.875 1.9 484.815 4.96 485.715 11.692H477.147C476.643 9.064 474.411 7.552 470.019 7.552C464.799 7.552 461.415 10.324 461.415 14.968V15.256C461.415 19.9 464.619 22.672 470.127 22.672C474.483 22.672 477.291 21.304 477.903 18.388H486.111C485.283 25.012 479.163 28.432 470.235 28.432Z" fill="white"/>
<path d="M501.034 28.432C493.474 28.432 487.57 24.904 487.57 18.82V18.532C487.57 12.484 493.51 8.668 501.106 8.668C508.666 8.668 514.57 12.376 514.57 18.352V18.64C514.57 24.76 508.594 28.432 501.034 28.432ZM501.106 23.608C504.598 23.608 506.758 21.736 506.758 18.712V18.424C506.758 15.364 504.598 13.564 501.106 13.564C497.614 13.564 495.346 15.292 495.346 18.352V18.64C495.346 21.736 497.506 23.608 501.106 23.608Z" fill="white"/>
<path d="M521.194 7.444C518.782 7.444 516.982 6.22 516.982 4.132C516.982 2.044 518.782 0.819999 521.194 0.819999C523.606 0.819999 525.442 2.044 525.442 4.132C525.442 6.22 523.606 7.444 521.194 7.444ZM517.414 28V9.172H525.046V28H517.414Z" fill="white"/>
<path d="M529.155 28V9.172H536.751V12.448C538.083 10.324 540.927 8.668 545.175 8.668C550.071 8.668 553.491 11.008 553.491 16.012V28H545.859V17.488C545.859 15.112 544.527 13.96 541.683 13.96C538.875 13.96 536.751 15.22 536.751 17.884V28H529.155Z" fill="white"/>
<path d="M566.506 28V2.26H579.934C588.538 2.26 592.678 5.176 592.678 10.936V11.08C592.678 16.768 588.178 20.224 580.294 20.224H574.786V28H566.506ZM574.786 14.968H579.646C582.778 14.968 584.506 13.744 584.506 11.296V11.152C584.506 8.668 582.706 7.66 579.682 7.66H574.786V14.968Z" fill="white"/>
<path d="M602.031 28.432C597.387 28.432 593.355 26.632 593.355 22.492C593.355 18.208 597.063 16.444 604.695 16.444H609.699V16.084C609.699 14.212 608.727 13.276 605.667 13.276C603.003 13.276 601.779 14.176 601.491 15.364H594.327C594.759 10.828 599.511 8.668 606.099 8.668C612.867 8.668 617.259 10.792 617.259 15.904V28H609.843V25.732C608.583 27.352 606.387 28.432 602.031 28.432ZM604.587 24.004C607.359 24.004 609.699 23.104 609.699 21.34V20.476H604.803C602.031 20.476 600.915 20.98 600.915 22.204C600.915 23.392 602.175 24.004 604.587 24.004Z" fill="white"/>
<path d="M632.717 28.432C625.373 28.432 619.793 25.156 619.793 18.82V18.532C619.793 12.268 625.625 8.668 632.897 8.668C639.089 8.668 644.381 10.756 644.921 16.444H637.757C637.289 14.824 635.957 13.744 633.041 13.744C629.657 13.744 627.569 15.328 627.569 18.46V18.748C627.569 21.988 629.549 23.644 633.149 23.644C636.101 23.644 637.865 22.6 638.225 20.584H645.101C644.705 25.3 640.781 28.432 632.717 28.432Z" fill="white"/>
<path d="M647.666 28V1.252H655.262V16.876L662.93 9.172H671.102L662.138 17.596L671.786 28H663.002L655.262 19.468V28H647.666Z" fill="white"/>
<path d="M680.359 28.432C675.715 28.432 671.683 26.632 671.683 22.492C671.683 18.208 675.391 16.444 683.023 16.444H688.027V16.084C688.027 14.212 687.055 13.276 683.995 13.276C681.331 13.276 680.107 14.176 679.819 15.364H672.655C673.087 10.828 677.839 8.668 684.427 8.668C691.195 8.668 695.587 10.792 695.587 15.904V28H688.171V25.732C686.911 27.352 684.715 28.432 680.359 28.432ZM682.915 24.004C685.687 24.004 688.027 23.104 688.027 21.34V20.476H683.131C680.359 20.476 679.243 20.98 679.243 22.204C679.243 23.392 680.503 24.004 682.915 24.004Z" fill="white"/>
<path d="M711.441 34.768C702.873 34.768 699.057 32.104 698.481 27.748H706.005C706.365 29.296 707.841 30.196 711.369 30.196C715.365 30.196 717.129 28.576 717.129 25.84V23.608C715.833 25.516 712.917 26.992 708.993 26.992C703.017 26.992 698.229 24.04 698.229 18.028V17.74C698.229 12.088 702.909 8.668 708.993 8.668C713.133 8.668 715.689 9.964 717.129 12.016V9.172H724.725V25.84C724.725 31.816 719.865 34.768 711.441 34.768ZM711.621 22.312C714.969 22.312 717.309 20.692 717.309 18.028V17.74C717.309 15.148 715.041 13.564 711.585 13.564C708.057 13.564 706.005 15.148 706.005 17.776V18.064C706.005 20.656 708.273 22.312 711.621 22.312Z" fill="white"/>
<path d="M752.965 21.772C752.173 26.02 747.961 28.432 740.725 28.432C732.913 28.432 727.477 24.976 727.477 18.82V18.532C727.477 12.484 733.129 8.668 740.581 8.668C747.493 8.668 753.001 11.62 753.001 18.388V20.224H735.145C735.685 22.924 737.953 23.932 740.977 23.932C743.893 23.932 745.405 22.996 745.801 21.772H752.965ZM740.581 13.096C738.241 13.096 736.081 13.78 735.289 16.3H745.621C745.441 14.248 743.821 13.096 740.581 13.096Z" fill="white"/>
<path d="M765.972 28V13.816H762.696V9.172H765.972V8.272C765.972 3.268 769.788 1.036 775.404 1.036C776.88 1.036 777.96 1.144 779.004 1.36V6.184C778.428 6.076 777.672 5.968 776.736 5.968C774.612 5.968 773.568 6.832 773.568 8.38V9.172H779.004V13.816H773.568V28H765.972Z" fill="#FFC802"/>
<path d="M793.077 28.432C785.517 28.432 779.613 24.904 779.613 18.82V18.532C779.613 12.484 785.553 8.668 793.149 8.668C800.709 8.668 806.613 12.376 806.613 18.352V18.64C806.613 24.76 800.637 28.432 793.077 28.432ZM793.149 23.608C796.641 23.608 798.801 21.736 798.801 18.712V18.424C798.801 15.364 796.641 13.564 793.149 13.564C789.657 13.564 787.389 15.292 787.389 18.352V18.64C787.389 21.736 789.549 23.608 793.149 23.608Z" fill="#FFC802"/>
<path d="M809.385 28V9.172H816.981V13.132C818.529 10.072 821.337 8.884 825.297 8.956V15.184C820.257 14.932 816.981 16.336 816.981 19.324V28H809.385Z" fill="#FFC802"/>
<path d="M840.484 7.444C838.036 7.444 836.272 6.22 836.272 4.132C836.272 2.044 838.036 0.819999 840.484 0.819999C842.86 0.819999 844.732 2.044 844.732 4.132C844.732 6.22 842.86 7.444 840.484 7.444ZM833.572 34.624V29.908C835.912 29.8 836.704 29.08 836.704 27.352V9.172H844.336V27.532C844.336 31.852 842.032 34.624 833.572 34.624Z" fill="#FFC802"/>
<path d="M856.688 28.432C851.756 28.432 848.228 26.056 848.228 21.052V9.172H855.86V19.72C855.86 22.096 857.156 23.248 859.928 23.248C862.808 23.248 864.86 21.988 864.86 19.288V9.172H872.492V28H864.86V24.832C863.6 26.956 860.972 28.432 856.688 28.432Z" fill="#FFC802"/>
<path d="M886.434 28.432C879.342 28.468 875.202 26.092 874.95 21.952H882.114C882.402 23.356 883.518 24.148 886.398 24.148C889.062 24.148 890.142 23.572 890.142 22.564C890.142 21.376 888.774 21.232 884.85 20.872C878.226 20.26 875.382 18.856 875.382 15.04C875.382 10.576 880.17 8.668 886.002 8.668C892.05 8.668 896.298 10.216 896.946 14.716H889.926C889.53 13.456 888.378 12.916 886.002 12.916C883.842 12.916 882.582 13.276 882.582 14.212C882.582 15.22 883.914 15.4 887.262 15.724C894.318 16.3 897.666 17.524 897.666 21.808C897.666 26.272 893.346 28.396 886.434 28.432Z" fill="#FFC802"/>
<path d="M910.164 28.432C904.764 28.432 901.74 26.344 901.74 21.556V13.816H898.608V9.172H901.74V4.888H909.372V9.172H914.592V13.816H909.372V20.98C909.372 22.6 910.38 23.14 912.144 23.14C913.116 23.14 913.836 23.032 914.628 22.816V27.892C913.584 28.108 912.108 28.432 910.164 28.432Z" fill="#FFC802"/>
<path d="M933.301 26.56C931.741 26.512 930.349 26.368 929.125 26.128C927.901 25.864 926.785 25.504 925.777 25.048V20.404C926.761 20.884 927.949 21.328 929.341 21.736C930.733 22.12 932.053 22.348 933.301 22.42V16.984C931.909 16.432 930.721 15.904 929.737 15.4C928.777 14.896 927.997 14.368 927.397 13.816C926.821 13.24 926.401 12.616 926.137 11.944C925.873 11.248 925.741 10.456 925.741 9.568C925.741 8.368 926.053 7.336 926.677 6.472C927.325 5.584 928.213 4.876 929.341 4.348C930.493 3.82 931.813 3.496 933.301 3.376V0.675999H935.713V3.304C937.057 3.352 938.317 3.508 939.493 3.772C940.693 4.036 941.857 4.42 942.985 4.924L941.329 9.028C940.369 8.62 939.397 8.308 938.413 8.092C937.453 7.876 936.553 7.732 935.713 7.66V12.844C937.009 13.324 938.245 13.852 939.421 14.428C940.597 14.98 941.545 15.688 942.265 16.552C943.009 17.416 943.381 18.556 943.381 19.972C943.381 21.724 942.745 23.188 941.473 24.364C940.201 25.54 938.281 26.248 935.713 26.488V30.088H933.301V26.56ZM935.713 22.312C936.529 22.168 937.129 21.928 937.513 21.592C937.897 21.232 938.089 20.776 938.089 20.224C938.089 19.888 937.993 19.6 937.801 19.36C937.633 19.096 937.369 18.856 937.009 18.64C936.673 18.4 936.241 18.16 935.713 17.92V22.312ZM933.301 7.732C932.821 7.804 932.413 7.924 932.077 8.092C931.741 8.236 931.477 8.44 931.285 8.704C931.117 8.944 931.033 9.232 931.033 9.568C931.033 9.904 931.105 10.204 931.249 10.468C931.417 10.708 931.669 10.948 932.005 11.188C932.341 11.404 932.773 11.632 933.301 11.872V7.732Z" fill="#FFC802"/>
<path d="M952.535 28V9.46L945.839 14.14V7.732L953.687 2.26H960.815V28H952.535Z" fill="#FFC802"/>
<path d="M980.759 28.432C970.787 28.432 965.567 23.5 965.567 16.048V14.248C965.567 6.472 971.363 1.9 980.831 1.9C990.335 1.9 996.095 6.58 996.095 14.104V15.832C996.095 23.5 990.767 28.432 980.759 28.432ZM980.975 22.852C985.799 22.852 987.851 20.404 987.851 16.084V14.212C987.851 9.82 985.511 7.336 980.867 7.336C976.187 7.336 973.883 9.748 973.883 14.212V16.012C973.883 20.476 976.223 22.852 980.975 22.852Z" fill="#FFC802"/>
<path d="M1000.85 19.576L999.7 2.26H1008.23L1007.08 19.576H1000.85ZM1003.95 28.396C1001.36 28.396 999.628 26.812 999.628 24.76C999.628 22.744 1001.36 21.124 1003.95 21.124C1006.58 21.124 1008.3 22.744 1008.3 24.76C1008.3 26.812 1006.58 28.396 1003.95 28.396Z" fill="#FFC802"/>
<path d="M358.625 15L444.5 15" stroke="#FF3C2E" stroke-width="3"/>
</svg>
