<svg width="362" height="362" viewBox="0 0 362 362" fill="none" xmlns="http://www.w3.org/2000/svg">
<g filter="url(#filter0_d_1_5)">
<circle cx="180.943" cy="181.473" r="130.12" transform="rotate(-6.36001 180.943 181.473)" fill="#0D71D3"/>
<circle cx="180.81" cy="181.367" r="117" transform="rotate(-6.36001 180.81 181.367)" stroke="white" stroke-width="2"/>
<mask id="mask0_1_5" style="mask-type:alpha" maskUnits="userSpaceOnUse" x="34" y="44" width="292" height="121">
<rect width="283" height="89" transform="matrix(0.993845 -0.110775 -0.110775 -0.993845 44.0901 164.408)" fill="#D9D9D9"/>
</mask>
<g mask="url(#mask0_1_5)">
<circle cx="180.81" cy="181.367" r="118" transform="rotate(-6.36001 180.81 181.367)" fill="white"/>
</g>
<path d="M222.548 210.001C222.752 211.827 222.256 213.37 221.059 214.63C219.862 215.879 218.087 216.746 215.735 217.229L216.129 220.759L213.77 221.022L213.384 217.56C210.576 217.815 208.065 217.595 205.849 216.901L205.342 212.355C206.396 212.737 207.644 213.04 209.087 213.262C210.541 213.484 211.823 213.568 212.933 213.514L212.338 208.175L211.134 207.856C208.761 207.214 207.04 206.424 205.971 205.486C204.912 204.534 204.296 203.284 204.123 201.734C203.938 200.069 204.434 198.631 205.612 197.419C206.801 196.194 208.547 195.336 210.852 194.847L210.559 192.212L212.918 191.95L213.204 194.515C215.845 194.337 218.281 194.6 220.509 195.305L219.34 199.515C217.467 198.98 215.58 198.737 213.68 198.786L214.246 203.866C216.58 204.477 218.254 205.046 219.265 205.573C220.289 206.098 221.061 206.715 221.581 207.424C222.113 208.132 222.436 208.991 222.548 210.001ZM217.394 210.837C217.34 210.355 217.1 209.969 216.672 209.68C216.245 209.39 215.621 209.111 214.801 208.842L215.279 213.13C216.81 212.692 217.516 211.928 217.394 210.837ZM209.306 201.156C209.363 201.661 209.582 202.061 209.963 202.356C210.355 202.637 210.96 202.907 211.779 203.164L211.328 199.118C209.872 199.501 209.198 200.18 209.306 201.156ZM232.315 216.88L230.365 199.388L224.446 204.582L223.683 197.74L230.739 191.527L238.497 190.662L241.308 215.878L232.315 216.88ZM260.848 214.164C250.832 215.28 245.145 211.022 244.323 203.652L244.135 201.959C243.274 194.236 248.601 189.179 258.053 188.125C267.504 187.072 273.823 190.902 274.656 198.378L274.841 200.036C275.69 207.654 270.864 213.047 260.848 214.164ZM260.427 208.141C264.8 207.653 266.355 205.266 265.907 201.246L265.714 199.518C265.258 195.427 262.969 193.468 258.737 193.94C254.47 194.416 252.699 196.791 253.159 200.917L253.348 202.61C253.808 206.736 256.089 208.624 260.427 208.141Z" fill="#FFD52E"/>
<path d="M95.2027 231.156L93.7771 218.366L105.405 217.07L105.652 219.288L97.2623 220.223L97.6411 223.622L104.815 222.822L105.064 225.059L97.8904 225.858L98.4407 230.796L95.2027 231.156ZM116.391 228.994C110.988 229.596 107.386 227.172 106.971 223.451L106.955 223.308C106.532 219.516 109.771 216.402 114.941 215.826C120.147 215.245 123.944 217.466 124.371 221.295L124.387 221.438C124.81 225.23 121.722 228.4 116.391 228.994ZM116.193 226.734C119.467 226.369 121.315 224.424 121.028 221.848L121.012 221.705C120.737 219.237 118.536 217.689 115.191 218.062C111.81 218.439 110.047 220.337 110.334 222.914L110.35 223.057C110.639 225.651 112.973 227.093 116.193 226.734ZM127.139 227.597L125.713 214.806L132.422 214.058C135.91 213.669 138.32 214.651 138.623 217.37L138.631 217.441C138.864 219.534 137.6 220.708 135.961 221.434L140.663 226.089L137.032 226.494L132.926 222.478L129.867 222.819L130.359 227.238L127.139 227.597ZM129.619 220.601L132.983 220.226C134.664 220.039 135.612 219.281 135.464 217.957L135.456 217.886C135.297 216.455 134.148 216.057 132.556 216.235L129.175 216.612L129.619 220.601ZM148.528 225.376C147.115 225.533 146.308 225.442 145.73 225.289L145.486 223.107C146.097 223.22 146.737 223.275 147.703 223.168C149.313 222.988 150.302 222.28 150.117 220.616L149.178 212.191L152.416 211.83L153.359 220.291C153.702 223.368 151.838 225.007 148.528 225.376ZM163.255 223.771C158.854 224.261 156.14 222.662 155.713 218.834L154.902 211.553L158.14 211.192L158.939 218.365C159.215 220.834 160.533 221.774 163.055 221.493C165.452 221.225 166.651 220.114 166.347 217.395L165.564 210.364L168.802 210.003L169.601 217.177C170.038 221.095 167.745 223.27 163.255 223.771ZM178.996 222.016C174.434 222.524 172.018 221.164 171.483 218.633L174.649 218.28C174.992 219.401 176.004 220.194 178.723 219.891C180.869 219.652 182.016 218.89 181.895 217.799C181.773 216.708 180.739 216.533 177.879 216.544C173.649 216.617 171.713 215.819 171.441 213.386C171.192 211.15 173.289 209.322 177.099 208.897C180.856 208.479 183.281 209.44 183.908 211.978L180.831 212.321C180.397 211.192 179.286 210.809 177.354 211.024C175.297 211.254 174.409 211.896 174.512 212.826C174.61 213.703 175.367 213.999 178.297 213.962C182.364 213.889 184.71 214.46 185.013 217.18C185.284 219.613 183.164 221.551 178.996 222.016ZM190.764 220.505L189.588 209.95L184.74 210.491L184.49 208.255L197.424 206.813L197.674 209.049L192.826 209.59L194.002 220.144L190.764 220.505Z" fill="#FFFAEA"/>
<path d="M172.677 188.51C167.293 189.11 163.927 186.859 163.49 182.941L163.474 182.798C163.043 178.934 166.433 175.876 171.156 175.349C175.396 174.877 178.44 176.023 179.238 179.121L175.928 179.49C175.441 178.041 174.037 177.31 171.425 177.601C168.402 177.938 166.564 179.809 166.853 182.403L166.869 182.546C167.16 185.158 169.238 186.575 172.404 186.222C174.98 185.935 176.516 184.93 176.707 183.225L179.855 182.874C179.725 186.094 177.007 188.027 172.677 188.51ZM189.995 186.579C184.593 187.182 180.99 184.758 180.575 181.037L180.559 180.894C180.136 177.101 183.375 173.987 188.545 173.411C193.751 172.831 197.549 175.052 197.975 178.88L197.991 179.023C198.414 182.816 195.326 185.985 189.995 186.579ZM189.798 184.319C193.071 183.955 194.919 182.01 194.632 179.434L194.616 179.291C194.341 176.822 192.14 175.274 188.795 175.647C185.414 176.024 183.651 177.923 183.938 180.499L183.954 180.642C184.243 183.236 186.577 184.678 189.798 184.319ZM200.761 185.18L199.335 172.389L202.609 172.025L204.035 184.815L200.761 185.18ZM206.891 184.497L205.466 171.706L209.366 171.271L217.715 179.397L216.718 170.452L219.562 170.135L220.988 182.926L217.607 183.303L208.657 174.502L209.736 184.18L206.891 184.497ZM228.363 182.104L226.937 169.313L233.145 168.621C236.991 168.192 239.319 169.255 239.636 172.099L239.644 172.171C239.959 174.997 237.839 176.773 234.225 177.176L231.113 177.523L231.583 181.745L228.363 182.104ZM230.877 175.412L233.829 175.083C235.654 174.88 236.627 174.028 236.468 172.597L236.46 172.526C236.294 171.041 235.104 170.594 233.351 170.79L230.399 171.119L230.877 175.412ZM239.845 180.824L244.251 167.383L248.455 166.914L255.641 179.063L252.242 179.442L250.671 176.719L243.82 177.483L242.851 180.489L239.845 180.824ZM246.425 169.332L244.519 175.304L249.545 174.744L246.425 169.332ZM264.01 178.33C258.626 178.93 255.259 176.679 254.823 172.761L254.807 172.618C254.376 168.754 257.766 165.696 262.489 165.169C266.729 164.697 269.772 165.842 270.571 168.941L267.261 169.31C266.774 167.861 265.37 167.13 262.758 167.421C259.735 167.758 257.897 169.629 258.186 172.223L258.202 172.366C258.493 174.978 260.571 176.395 263.737 176.042C266.313 175.755 267.849 174.75 268.04 173.045L271.188 172.694C271.058 175.914 268.339 177.847 264.01 178.33ZM273.417 177.082L271.991 164.291L275.229 163.93L275.877 169.744L281.955 163.18L285.569 162.778L279.179 169.63L287.263 175.539L283.327 175.977L275.977 170.639L276.655 176.721L273.417 177.082Z" fill="#FFFAEA"/>
<path d="M94.3915 190.075C94.5949 191.9 94.0986 193.444 92.9025 194.704C91.7051 195.953 89.9304 196.82 87.5784 197.303L87.9718 200.833L85.6127 201.096L85.2269 197.634C82.4194 197.889 79.9076 197.669 77.6916 196.975L77.1849 192.429C78.2387 192.811 79.487 193.114 80.9298 193.336C82.3841 193.558 83.6661 193.642 84.7758 193.588L84.1808 188.249L82.9772 187.93C80.6043 187.288 78.8833 186.498 77.814 185.559C76.7549 184.608 76.139 183.358 75.9662 181.808C75.7807 180.143 76.277 178.705 77.4553 177.493C78.6437 176.268 80.3904 175.41 82.6952 174.921L82.4016 172.286L84.7607 172.023L85.0467 174.589C87.6884 174.411 90.1237 174.674 92.3524 175.379L91.1829 179.589C89.3101 179.054 87.4234 178.811 85.5227 178.86L86.0889 183.94C88.4235 184.551 90.0967 185.12 91.1084 185.647C92.1316 186.172 92.9036 186.789 93.4243 187.498C93.9565 188.206 94.2789 189.065 94.3915 190.075ZM89.237 190.911C89.1833 190.429 88.9427 190.043 88.5152 189.754C88.0878 189.464 87.4639 189.185 86.6436 188.916L87.1216 193.204C88.6534 192.766 89.3586 192.002 89.237 190.911ZM81.1495 181.23C81.2058 181.735 81.4247 182.135 81.8062 182.43C82.1979 182.711 82.8033 182.981 83.6223 183.238L83.1712 179.192C81.7146 179.575 81.0407 180.254 81.1495 181.23ZM111.262 196.626C101.987 197.66 97.4759 194.664 96.5571 189.303L104.598 188.407C105.03 190.358 106.59 191.541 110.222 191.137C113.361 190.787 114.767 189.63 114.571 187.867C114.386 186.209 112.783 185.602 109.75 185.94L106.929 186.255L106.363 181.177L109.043 180.878C112.041 180.544 113.428 179.532 113.251 177.945C113.093 176.535 111.651 175.767 108.83 176.081C106.079 176.388 104.582 177.697 104.372 179.649L96.4717 180.529C96.3289 175.404 100.391 171.488 108.644 170.568C116.226 169.723 121.129 171.747 121.612 176.085C121.927 178.906 120.231 180.988 117.041 182.164C120.917 182.339 123.363 184.102 123.693 187.064C124.236 191.931 119.868 195.667 111.262 196.626ZM141.956 193.205C131.94 194.321 126.252 190.064 125.431 182.693L125.242 181C124.381 173.277 129.709 168.22 139.16 167.166C148.612 166.113 154.93 169.943 155.763 177.42L155.948 179.077C156.797 186.695 151.971 192.089 141.956 193.205ZM141.534 187.182C145.907 186.695 147.462 184.308 147.014 180.287L146.821 178.559C146.365 174.468 144.076 172.51 139.844 172.982C135.577 173.457 133.807 175.833 134.266 179.959L134.455 181.652C134.915 185.778 137.196 187.666 141.534 187.182Z" fill="#FFD52E"/>
<path d="M95.5 185L160.213 177.122" stroke="#FF3C2E" stroke-width="3"/>
<path d="M117.929 114.21C111.218 114.958 107.665 112.957 106.877 109.235L111.535 108.716C112.038 110.365 113.527 111.531 117.527 111.085C120.685 110.733 122.372 109.612 122.193 108.007C122.014 106.402 120.493 106.145 116.286 106.161C110.063 106.269 107.215 105.094 106.816 101.515C106.449 98.2259 109.533 95.5377 115.138 94.9129C120.665 94.2969 124.232 95.7109 125.155 99.4446L120.629 99.9491C119.991 98.2885 118.356 97.7247 115.514 98.0415C112.488 98.3788 111.181 99.3237 111.333 100.692C111.477 101.982 112.591 102.417 116.901 102.363C122.884 102.255 126.334 103.096 126.78 107.096C127.179 110.675 124.06 113.527 117.929 114.21ZM130.461 112.521L128.364 93.7052L137.495 92.6874C143.153 92.0568 146.577 93.62 147.044 97.8041L147.055 97.9094C147.519 102.067 144.4 104.679 139.084 105.272L134.505 105.782L135.198 111.993L130.461 112.521ZM134.159 102.677L138.501 102.193C141.185 101.894 142.618 100.642 142.383 98.5367L142.371 98.4314C142.128 96.2473 140.376 95.59 137.797 95.8774L133.455 96.3614L134.159 102.677ZM151.043 110.226L148.946 91.4111L166.183 89.4899L166.54 92.7003L154.041 94.0936L154.536 98.5408L165.168 97.3558L165.526 100.566L154.894 101.751L155.422 106.488L168.501 105.03L168.859 108.241L151.043 110.226ZM182.744 106.986C174.823 107.869 169.871 104.558 169.229 98.7948L169.205 98.5842C168.572 92.9002 173.559 88.4013 180.506 87.6269C186.743 86.9318 191.22 88.6174 192.394 93.1756L187.526 93.7182C186.809 91.5868 184.744 90.5115 180.902 90.9397C176.455 91.4354 173.751 94.1879 174.176 98.0036L174.2 98.2141C174.628 102.056 177.684 104.14 182.342 103.621C186.131 103.198 188.391 101.721 188.671 99.212L193.302 98.6958C193.111 103.433 189.112 106.276 182.744 106.986ZM196.686 105.139L194.589 86.3237L199.405 85.7869L201.502 104.602L196.686 105.139ZM203.862 104.339L210.343 84.5676L216.527 83.8784L227.098 101.749L222.098 102.307L219.787 98.3014L209.708 99.4248L208.283 103.846L203.862 104.339ZM213.54 87.435L210.736 96.2197L218.131 95.3955L213.54 87.435ZM229.398 101.493L227.301 82.6776L232.064 82.1467L233.794 97.6726L244.636 96.4642L245.003 99.7536L229.398 101.493ZM114.918 148.983C102.559 150.361 94.6296 145.208 93.6834 136.719L93.6482 136.403C92.6844 127.756 100.338 121.107 111.789 119.83C123.437 118.532 132.16 122.916 133.146 131.761L133.181 132.077C134.154 140.803 127.198 147.615 114.918 148.983ZM114.359 142.17C120.005 141.54 123.224 138.144 122.696 133.405L122.661 133.09C122.137 128.391 118.266 125.944 112.541 126.582C106.816 127.22 103.649 130.372 104.186 135.189L104.221 135.505C104.758 140.322 108.673 142.804 114.359 142.17ZM138.579 145.826L135.432 117.595L162.4 114.589L163.144 121.262L146.284 123.141L146.896 128.629L161.545 126.997L162.271 133.512L147.622 135.144L148.687 144.7L138.579 145.826ZM169.735 142.354L166.588 114.122L193.556 111.116L194.3 117.789L177.44 119.668L178.052 125.157L192.7 123.524L193.427 130.039L178.778 131.672L179.843 141.227L169.735 142.354ZM200.891 138.881L197.744 110.649L225.383 107.569L226.109 114.084L208.499 116.046L208.979 120.35L224.102 118.665L224.806 124.982L209.683 126.668L210.194 131.248L228.633 129.193L229.359 135.708L200.891 138.881ZM233.744 135.219L230.597 106.987L246.747 105.187C255.749 104.184 260.835 106.775 261.508 112.816L261.526 112.974C262.014 117.357 259.83 119.639 256.514 121.448L265.964 131.628L254.947 132.856L247.512 124.97L242.853 125.489L243.813 134.097L233.744 135.219ZM242.154 119.211L247.484 118.617C250.366 118.296 251.906 117.045 251.646 114.715L251.629 114.557C251.36 112.149 249.522 111.434 246.797 111.738L241.388 112.341L242.154 119.211Z" fill="#0D71D3"/>
</g>
<defs>
<filter id="filter0_d_1_5" x="-17" y="-50" width="391.411" height="424.968" filterUnits="userSpaceOnUse" color-interpolation-filters="sRGB">
<feFlood flood-opacity="0" result="BackgroundImageFix"/>
<feColorMatrix in="SourceAlpha" type="matrix" values="0 0 0 0 0 0 0 0 0 0 0 0 0 0 0 0 0 0 127 0" result="hardAlpha"/>
<feOffset/>
<feGaussianBlur stdDeviation="25"/>
<feComposite in2="hardAlpha" operator="out"/>
<feColorMatrix type="matrix" values="0 0 0 0 0.444013 0 0 0 0 0.34833 0 0 0 0 0.982859 0 0 0 1 0"/>
<feBlend mode="normal" in2="BackgroundImageFix" result="effect1_dropShadow_1_5"/>
<feBlend mode="normal" in="SourceGraphic" in2="effect1_dropShadow_1_5" result="shape"/>
</filter>
</defs>
</svg>
