<svg width="187" height="35" viewBox="0 0 187 35" fill="none" xmlns="http://www.w3.org/2000/svg">
<path d="M101.01 32.4806H95.9212L92.2917 27.5939C84.6959 27.3701 79.7193 22.3342 79.7193 14.7245C79.7193 7.11475 84.9204 1.85506 92.7781 1.85506C100.636 1.85506 105.874 6.92823 105.874 14.7245C105.874 21.1779 102.357 25.7288 96.6695 27.1463L101.01 32.4806ZM92.7781 23.7144C98.7275 23.7144 101.609 20.954 101.609 14.7245C101.609 8.49495 98.7275 5.69724 92.7781 5.69724C86.8287 5.69724 83.9849 8.49495 83.9849 14.7245C83.9849 20.954 86.8287 23.7144 92.7781 23.7144ZM116.613 27.5939C111.375 27.5939 108.83 24.1248 108.83 19.835V8.68146H112.834V18.7532C112.834 22.2223 114.443 23.9756 118.372 23.9756C122.301 23.9756 124.396 21.8866 124.396 17.8579V8.68146H128.4V27.2209H124.695V21.4763H124.471C123.872 24.6097 121.403 27.5939 116.613 27.5939ZM141.421 27.5939C135.322 27.5939 131.318 24.1621 131.318 17.9698C131.318 12.1879 135.285 8.30843 141.346 8.30843C147.408 8.30843 151.037 11.4792 151.037 17.1119C151.037 17.7833 151 18.3056 150.888 18.8651H135.097C135.247 22.4462 137.006 24.3486 141.309 24.3486C145.2 24.3486 146.809 23.0803 146.809 20.8794V20.581H150.85V20.9167C150.85 24.8708 146.959 27.5939 141.421 27.5939ZM141.271 11.4792C137.155 11.4792 135.359 13.307 135.135 16.6269H147.221V16.5523C147.221 13.1205 145.238 11.4792 141.271 11.4792ZM162.861 27.5939C156.875 27.5939 153.47 25.2439 153.47 20.954V20.8421H157.511V21.1406C157.511 23.5652 158.97 24.3486 162.861 24.3486C166.491 24.3486 167.576 23.6025 167.576 21.9612C167.576 20.4318 166.678 19.9469 164.021 19.5738L158.932 18.9024C155.415 18.4548 153.282 16.9627 153.282 13.8665C153.282 10.7704 156.238 8.30843 161.963 8.30843C167.688 8.30843 171.093 10.5839 171.093 14.9856V15.0975H167.09V14.8737C167.09 12.6728 165.967 11.5165 161.851 11.5165C158.446 11.5165 157.249 12.2625 157.249 14.0157C157.249 15.4706 157.997 15.9928 160.803 16.3658L165.106 16.9627C169.522 17.5222 171.542 19.0143 171.542 22.0731C171.542 25.5423 168.1 27.5939 162.861 27.5939ZM186.64 27.2209H182.375C178.371 27.2209 175.901 25.4677 175.901 20.954V12.0387H172.758V8.68146H175.901V4.61546H179.905V8.68146H186.64V12.0387H179.905V20.7302C179.905 23.0057 180.953 23.6025 183.273 23.6025H186.64V27.2209Z" fill="white"/>
<path d="M10.61 27.7433C8.58943 27.7433 6.81209 27.3889 5.25926 26.6615C3.70643 25.9341 2.50906 24.9083 1.62975 23.5654C0.750432 22.2225 0.320129 20.5998 0.320129 18.716V17.6715H5.18442V18.716C5.18442 20.2827 5.67085 21.4578 6.64371 22.2598C7.61657 23.0245 8.9449 23.4161 10.61 23.4161C12.2751 23.4161 13.566 23.0804 14.3892 22.409C15.2311 21.7375 15.6614 20.8796 15.6614 19.8351C15.6614 19.1077 15.4556 18.5295 15.0253 18.0819C14.6324 17.6342 14.0337 17.2799 13.2292 17.0001C12.4622 16.7017 11.508 16.4219 10.3855 16.1794L9.52487 15.9929C7.72882 15.6012 6.17599 15.0976 4.88508 14.5008C3.61288 13.8853 2.62131 13.0647 1.92909 12.0761C1.25557 11.0876 0.918812 9.78201 0.918812 8.19665C0.918812 6.61128 1.29299 5.24974 2.04134 4.13065C2.8084 2.99292 3.89351 2.11631 5.25926 1.51947C6.66242 0.903972 8.29009 0.586899 10.161 0.586899C12.0319 0.586899 13.6969 0.903972 15.1375 1.55677C16.6155 2.17226 17.7568 3.12348 18.5799 4.39177C19.4218 5.64141 19.8521 7.20813 19.8521 9.09191V10.211H14.9878V9.09191C14.9878 8.10339 14.782 7.30138 14.3892 6.70454C14.015 6.08905 13.4724 5.64141 12.7428 5.36164C12.0131 5.06322 11.1525 4.91401 10.161 4.91401C8.66426 4.91401 7.56044 5.19378 6.8308 5.77197C6.13857 6.31286 5.78311 7.07757 5.78311 8.04744C5.78311 8.70024 5.95149 9.24112 6.26954 9.68876C6.625 10.1364 7.13014 10.5094 7.80366 10.8078C8.47718 11.1063 9.33778 11.3674 10.3855 11.5912L11.2461 11.7777C13.117 12.1694 14.7446 12.6916 16.1104 13.3071C17.5135 13.9226 18.5986 14.7433 19.3657 15.7691C20.1328 16.7949 20.5257 18.1005 20.5257 19.6859C20.5257 21.2712 20.1141 22.6887 19.2909 23.9011C18.4864 25.0948 17.3452 26.046 15.8485 26.7361C14.3705 27.4075 12.6305 27.7433 10.61 27.7433ZM24.361 34.6816V8.71889H29.0008V10.957H29.6743C30.1046 10.2296 30.7594 9.5955 31.6574 9.05461C32.5554 8.47642 33.8463 8.19665 35.5114 8.19665C37.0081 8.19665 38.3926 8.56968 39.6648 9.31573C40.937 10.0431 41.966 11.1063 42.733 12.5238C43.5001 13.9413 43.893 15.6572 43.893 17.6715V18.2684C43.893 20.2827 43.5001 21.9986 42.733 23.4161C41.966 24.8337 40.937 25.9154 39.6648 26.6615C38.3926 27.3889 37.0081 27.7433 35.5114 27.7433C34.3889 27.7433 33.4347 27.6127 32.6677 27.3329C31.9193 27.0905 31.3019 26.7547 30.8342 26.3631C30.3852 25.9341 30.0297 25.5238 29.7491 25.0948H29.0756V34.6816H24.361ZM34.0896 23.64C35.5676 23.64 36.7649 23.1737 37.7191 22.2598C38.6919 21.3085 39.1784 19.947 39.1784 18.1565V17.7834C39.1784 15.9929 38.6919 14.6314 37.7191 13.7174C36.7462 12.7662 35.5301 12.2999 34.0896 12.2999C32.649 12.2999 31.4329 12.7662 30.46 13.7174C29.4872 14.6314 29.0008 15.9929 29.0008 17.7834V18.1565C29.0008 19.947 29.4872 21.3085 30.46 22.2598C31.4329 23.1737 32.649 23.64 34.0896 23.64ZM48.2147 27.221V8.71889H52.9293V27.221H48.2147ZM50.572 6.55533C49.7301 6.55533 49.0005 6.27556 48.4018 5.73467C47.8218 5.19378 47.5412 4.46638 47.5412 3.57111C47.5412 2.67585 47.8218 1.94845 48.4018 1.40756C49.0005 0.866669 49.7301 0.586899 50.572 0.586899C51.4139 0.586899 52.1623 0.866669 52.7423 1.40756C53.3222 1.94845 53.6029 2.67585 53.6029 3.57111C53.6029 4.46638 53.3222 5.19378 52.7423 5.73467C52.1623 6.27556 51.4513 6.55533 50.572 6.55533ZM58.1678 27.221V8.71889H62.8076V11.1436H63.4811C63.7805 10.4908 64.3417 9.89392 65.1649 9.31573C65.9881 8.71889 67.2416 8.42046 68.9067 8.42046C70.3473 8.42046 71.6195 8.75619 72.6859 9.42764C73.7897 10.0804 74.6316 10.9757 75.2303 12.1507C75.8289 13.2885 76.1283 14.6314 76.1283 16.1794V27.221H71.4137V16.5525C71.4137 15.1536 71.0582 14.1091 70.366 13.419C69.6924 12.7289 68.7196 12.3746 67.4474 12.3746C66.0068 12.3746 64.8843 12.8595 64.0798 13.8294C63.2753 14.7806 62.8824 16.1048 62.8824 17.8207V27.221H58.1678Z" fill="#2F81E1"/>
</svg>
