<svg width="26" height="19" viewBox="0 0 26 19" fill="none" xmlns="http://www.w3.org/2000/svg">
<path d="M9.22415 0.0709473C12.7995 -0.0315483 16.7647 -0.0588805 20.3168 0.238845C22.1824 0.395029 24.2094 0.580497 24.8438 2.69776C25.6378 5.34801 25.6253 12.6154 24.8825 15.2901C24.0363 18.3367 19.1263 17.8193 16.6389 17.9023C12.8769 18.0272 8.8934 18.1219 5.13523 17.8076C3.16138 17.6426 1.16044 17.4552 0.569537 15.1925C-0.215751 12.1898 -0.126778 6.38956 0.45832 3.32738C0.968951 0.659565 2.89445 0.434075 5.23098 0.237869C6.50949 0.130492 7.93307 0.107065 9.22318 0.0699712L9.22415 0.0709473ZM10.2106 5.21525V12.8292L16.6902 9.11887L10.2106 5.21525Z" fill="white"/>
</svg>
